<?xml version="1.0" encoding="UTF-8" standalone="no"?>
<!DOCTYPE svg PUBLIC "-//W3C//DTD SVG 1.1//EN" "http://www.w3.org/Graphics/SVG/1.1/DTD/svg11.dtd">
<svg width="100%" height="100%" viewBox="0 0 256 256" version="1.1" xmlns="http://www.w3.org/2000/svg" xmlns:xlink="http://www.w3.org/1999/xlink" xml:space="preserve" xmlns:serif="http://www.serif.com/" style="fill-rule:evenodd;clip-rule:evenodd;stroke-linecap:round;stroke-linejoin:round;stroke-miterlimit:1.5;">
    <g transform="matrix(1.024,0,0,1.02811,-3.072,-4.11245)">
        <g id="Ebene1">
            <rect x="3" y="4" width="250" height="249" style="fill:url(#_Linear1);stroke:rgb(250,255,151);stroke-width:0.97px;"/>
        </g>
    </g>
    <g transform="matrix(1.35667,0,0,1.32735,-46.7415,97.2919)">
        <path d="M147.872,52.082C147.872,53.644 147.825,54.972 147.731,56.066C147.638,57.16 147.497,58.097 147.309,58.879C147.122,59.66 146.872,60.332 146.559,60.894C146.247,61.457 145.747,62.097 145.059,62.816C144.372,63.535 143.044,64.457 141.075,65.582C139.106,66.707 136.7,67.785 133.856,68.816C131.013,69.847 127.763,70.707 124.106,71.394C120.45,72.082 116.497,72.425 112.247,72.425C103.934,72.425 96.434,71.144 89.747,68.582C83.059,66.019 77.372,62.191 72.684,57.097C67.997,52.004 64.403,45.644 61.903,38.019C59.403,30.394 58.153,21.519 58.153,11.394C58.153,1.082 59.528,-8.075 62.278,-16.075C65.028,-24.075 68.872,-30.793 73.809,-36.231C78.747,-41.668 84.669,-45.793 91.575,-48.606C98.481,-51.418 106.091,-52.825 114.403,-52.825C117.778,-52.825 121.028,-52.543 124.153,-51.981C127.278,-51.418 130.169,-50.684 132.825,-49.778C135.481,-48.871 137.872,-47.825 139.997,-46.637C142.122,-45.45 143.606,-44.434 144.45,-43.59C145.294,-42.746 145.872,-42.043 146.184,-41.481C146.497,-40.918 146.747,-40.2 146.934,-39.325C147.122,-38.45 147.263,-37.418 147.356,-36.231C147.45,-35.043 147.497,-33.575 147.497,-31.825C147.497,-29.95 147.434,-28.356 147.309,-27.043C147.184,-25.731 146.966,-24.668 146.653,-23.856C146.341,-23.043 145.966,-22.45 145.528,-22.075C145.091,-21.7 144.591,-21.512 144.028,-21.512C143.091,-21.512 141.903,-22.059 140.466,-23.153C139.028,-24.246 137.169,-25.465 134.888,-26.809C132.606,-28.153 129.888,-29.371 126.731,-30.465C123.575,-31.559 119.809,-32.106 115.434,-32.106C110.622,-32.106 106.325,-31.121 102.544,-29.153C98.763,-27.184 95.544,-24.371 92.888,-20.715C90.231,-17.059 88.216,-12.637 86.841,-7.45C85.466,-2.262 84.778,3.582 84.778,10.082C84.778,17.207 85.513,23.379 86.981,28.597C88.45,33.816 90.544,38.113 93.263,41.488C95.981,44.863 99.263,47.379 103.106,49.035C106.95,50.691 111.278,51.519 116.091,51.519C120.466,51.519 124.247,51.004 127.434,49.972C130.622,48.941 133.356,47.8 135.638,46.55C137.919,45.3 139.794,44.175 141.263,43.175C142.731,42.175 143.872,41.675 144.684,41.675C145.309,41.675 145.809,41.8 146.184,42.05C146.559,42.3 146.872,42.8 147.122,43.55C147.372,44.3 147.559,45.347 147.684,46.691C147.809,48.035 147.872,49.832 147.872,52.082Z" style="fill:rgb(250,255,151);fill-rule:nonzero;stroke:white;stroke-width:3.18px;stroke-linecap:butt;stroke-miterlimit:2;"/>
    </g>
    <g transform="matrix(1.35667,0,0,1.32735,41.2585,144.292)">
        <path d="M147.872,52.082C147.872,53.644 147.825,54.972 147.731,56.066C147.638,57.16 147.497,58.097 147.309,58.879C147.122,59.66 146.872,60.332 146.559,60.894C146.247,61.457 145.747,62.097 145.059,62.816C144.372,63.535 143.044,64.457 141.075,65.582C139.106,66.707 136.7,67.785 133.856,68.816C131.013,69.847 127.763,70.707 124.106,71.394C120.45,72.082 116.497,72.425 112.247,72.425C103.934,72.425 96.434,71.144 89.747,68.582C83.059,66.019 77.372,62.191 72.684,57.097C67.997,52.004 64.403,45.644 61.903,38.019C59.403,30.394 58.153,21.519 58.153,11.394C58.153,1.082 59.528,-8.075 62.278,-16.075C65.028,-24.075 68.872,-30.793 73.809,-36.231C78.747,-41.668 84.669,-45.793 91.575,-48.606C98.481,-51.418 106.091,-52.825 114.403,-52.825C117.778,-52.825 121.028,-52.543 124.153,-51.981C127.278,-51.418 130.169,-50.684 132.825,-49.778C135.481,-48.871 137.872,-47.825 139.997,-46.637C142.122,-45.45 143.606,-44.434 144.45,-43.59C145.294,-42.746 145.872,-42.043 146.184,-41.481C146.497,-40.918 146.747,-40.2 146.934,-39.325C147.122,-38.45 147.263,-37.418 147.356,-36.231C147.45,-35.043 147.497,-33.575 147.497,-31.825C147.497,-29.95 147.434,-28.356 147.309,-27.043C147.184,-25.731 146.966,-24.668 146.653,-23.856C146.341,-23.043 145.966,-22.45 145.528,-22.075C145.091,-21.7 144.591,-21.512 144.028,-21.512C143.091,-21.512 141.903,-22.059 140.466,-23.153C139.028,-24.246 137.169,-25.465 134.888,-26.809C132.606,-28.153 129.888,-29.371 126.731,-30.465C123.575,-31.559 119.809,-32.106 115.434,-32.106C110.622,-32.106 106.325,-31.121 102.544,-29.153C98.763,-27.184 95.544,-24.371 92.888,-20.715C90.231,-17.059 88.216,-12.637 86.841,-7.45C85.466,-2.262 84.778,3.582 84.778,10.082C84.778,17.207 85.513,23.379 86.981,28.597C88.45,33.816 90.544,38.113 93.263,41.488C95.981,44.863 99.263,47.379 103.106,49.035C106.95,50.691 111.278,51.519 116.091,51.519C120.466,51.519 124.247,51.004 127.434,49.972C130.622,48.941 133.356,47.8 135.638,46.55C137.919,45.3 139.794,44.175 141.263,43.175C142.731,42.175 143.872,41.675 144.684,41.675C145.309,41.675 145.809,41.8 146.184,42.05C146.559,42.3 146.872,42.8 147.122,43.55C147.372,44.3 147.559,45.347 147.684,46.691C147.809,48.035 147.872,49.832 147.872,52.082Z" style="fill:rgb(250,255,151);fill-rule:nonzero;stroke:white;stroke-width:3.18px;stroke-linecap:butt;stroke-miterlimit:2;"/>
    </g>
    <defs>
        <linearGradient id="_Linear1" x1="0" y1="0" x2="1" y2="0" gradientUnits="userSpaceOnUse" gradientTransform="matrix(1.53081e-14,-249,250,1.52469e-14,130.93,253)"><stop offset="0" style="stop-color:rgb(242,175,13);stop-opacity:1"/><stop offset="1" style="stop-color:rgb(214,7,0);stop-opacity:1"/></linearGradient>
    </defs>
</svg>
